<?xml version="1.0" encoding="UTF-8"?>
<svg version="1.1" xmlns="http://www.w3.org/2000/svg" width="5670" height="3024">
<path d="M0 0 C29.37 0 58.74 0 89 0 C89 40.26 89 80.52 89 122 C104.22325794 125.04465159 117.60657169 117.96609636 130.1796875 109.98046875 C146.55705629 99.59529019 161.08827494 96.89885699 180.0859375 101.01953125 C190.82629395 103.61713626 202.63345386 106.63345386 210.625 114.625 C211.07875 115.40875 211.5325 116.1925 212 117 C211 120 211 120 209 121 C200.45334714 122.1328617 194.47082362 120.19546848 186.7890625 116.6015625 C177.89962482 112.63028748 166.71268345 109.81505262 157 111 C155.97132813 111.07154297 155.97132813 111.07154297 154.921875 111.14453125 C143.92928362 112.62734484 134.72028834 122.10873765 126.60571289 129.10522461 C115.4662968 138.66906104 106.90156824 143.06002948 92 142 C91.01 141.67 90.02 141.34 89 141 C89.33 162.12 89.66 183.24 90 205 C95.49648193 203.15212891 100.99296387 201.30425781 106.65600586 199.40039062 C124.80466912 193.30115606 142.95824618 187.21665573 161.11440182 181.13976288 C172.12374879 177.45451695 183.13135869 173.76423372 194.13500977 170.06201172 C203.72668384 166.83486928 213.32149268 163.61725709 222.92017275 160.41101027 C228.00167463 158.7132681 233.08148854 157.01082232 238.15757561 155.29695129 C242.93803865 153.68306104 247.7226001 152.08197384 252.51056671 150.49048805 C254.26445197 149.90503613 256.01680658 149.31497484 257.76745033 148.71990013 C260.16440634 147.90591163 262.56640205 147.10894075 264.97032166 146.3157959 C265.9990636 145.95977413 265.9990636 145.95977413 267.04858822 145.59656 C272.10169151 143.95824626 276.70850118 143.74454974 282 144 C284.96572533 153.13588892 287.9301267 162.27220606 290.89285851 171.4090662 C292.26874703 175.65207102 293.64508388 179.8949293 295.02246094 184.13745117 C296.35273082 188.2349331 297.6818026 192.33280188 299.01005936 196.43093681 C299.51595407 197.99109042 300.0222737 199.55110631 300.52903366 201.11097908 C301.24103604 203.30286633 301.95149911 205.49524708 302.66162109 207.68774414 C303.0657724 208.93350723 303.46992371 210.17927032 303.88632202 211.46278381 C307 221.35231414 307 221.35231414 307 226 C305.54168227 226.48564501 305.54168227 226.48564501 304.05390358 226.98110104 C280.42735406 234.84922656 256.80137728 242.71906988 233.17600441 250.59072781 C221.75107083 254.39731826 210.32594996 258.20334478 198.90039062 262.00805664 C188.94502231 265.32319639 178.99000281 268.63938108 169.03540552 271.95683533 C163.76169034 273.71430481 158.48779876 275.47124085 153.21348953 277.2269268 C148.25392482 278.87786048 143.29482604 280.53018591 138.33608818 282.18360138 C136.51168893 282.7916424 134.68711694 283.39916539 132.86236382 284.00614357 C130.3796743 284.83205919 127.89760117 285.65980091 125.41567993 286.48802185 C124.68611639 286.73023875 123.95655284 286.97245565 123.20488131 287.22201246 C119.53396927 288.44080808 119.53396927 288.44080808 116 290 C122.77958361 299.74210363 129.57861169 309.46542427 136.5625 319.0625 C141.02592642 325.19945684 145.36321369 331.40893049 149.625 337.6875 C153.9332679 344.0337224 158.34336798 350.27931769 162.90893555 356.44262695 C168.40374203 363.86882063 173.69147749 371.44015641 179 379 C185.0735802 387.64209887 191.17344155 396.26162548 197.375 404.8125 C201.98122861 411.1642759 206.51343068 417.56318071 211 424 C216.7047844 432.18401489 222.49986012 440.29829844 228.35546875 448.375 C228.81743652 449.01566406 229.2794043 449.65632813 229.75537109 450.31640625 C230.76615793 451.68368479 231.83768726 453.00590438 232.92578125 454.3125 C233.28027344 454.869375 233.63476562 455.42625 234 456 C232.88024077 459.35927769 232.26397398 459.80914756 229.484375 461.79296875 C228.73841064 462.33260254 227.99244629 462.87223633 227.22387695 463.42822266 C226.40749756 464.00878418 225.59111816 464.5893457 224.75 465.1875 C223.00794194 466.44759918 221.26710027 467.70938135 219.52734375 468.97265625 C218.16391846 469.96096436 218.16391846 469.96096436 216.77294922 470.96923828 C212.23746633 474.29078668 207.775142 477.70654393 203.3125 481.125 C196.32867121 486.46685875 189.33588807 491.79466434 182.27075195 497.02880859 C178.08275203 500.14057791 174.05856315 503.38664543 170.1875 506.890625 C166.80776902 508.60463143 163.63142699 508.90605365 160 508 C157.74755928 505.81436897 156.38822547 504.15092833 154.75 501.5625 C154.29165771 500.88944824 153.83331543 500.21639648 153.36108398 499.52294922 C152.38581643 498.08982894 151.42111982 496.64946637 150.46630859 495.20263672 C148.55716826 492.33479388 146.5620004 489.53323625 144.56176758 486.72851562 C143.04273095 484.59726345 141.53532272 482.45824063 140.03125 480.31640625 C139.52980469 479.60242676 139.02835938 478.88844727 138.51171875 478.15283203 C138.01285156 477.44239746 137.51398437 476.73196289 137 476 C130.9264198 467.35790113 124.82655845 458.73837452 118.625 450.1875 C113.41376776 443.00145213 108.30724949 435.74723058 103.2331543 428.46386719 C99.3585303 422.91226336 95.42058329 417.41168318 91.4375 411.9375 C86.97411462 405.80051443 82.6367868 399.59107022 78.375 393.3125 C74.0723541 386.97455899 69.66898929 380.73629346 65.10864258 374.58154297 C61.52917133 369.74477345 58.03119568 364.85427133 54.5625 359.9375 C54.06613037 359.2347998 53.56976074 358.53209961 53.05834961 357.80810547 C50.91147256 354.75811004 48.79854183 351.70126862 46.77734375 348.56640625 C45.25318413 345.92630297 45.25318413 345.92630297 43 345 C42.79117188 345.65484375 42.58234375 346.3096875 42.3671875 346.984375 C40.47882362 351.1495662 37.84159369 354.58700041 35.125 358.25 C33.93926955 359.8691808 32.75439269 361.488987 31.5703125 363.109375 C30.9712207 363.92728516 30.37212891 364.74519531 29.75488281 365.58789062 C27.12925629 369.19684862 24.56296331 372.84640489 22 376.5 C17.92032611 382.30439768 13.79131749 388.07000939 9.625 393.8125 C4.41362817 400.99844437 -0.69275268 408.25277253 -5.7668457 415.53613281 C-9.6414697 421.08773664 -13.57941671 426.58831682 -17.5625 432.0625 C-22.02588538 438.19948557 -26.3632132 444.40892978 -30.625 450.6875 C-34.9327052 457.03289353 -39.34303246 463.27702313 -43.90673828 469.44042969 C-53.24924621 482.07093152 -62.13407706 495.03271506 -71 508 C-71.763125 507.814375 -72.52625 507.62875 -73.3125 507.4375 C-76.08967375 506.77180827 -76.08967375 506.77180827 -79 508 C-81.42552189 506.43984973 -83.61921653 504.84444446 -85.875 503.0625 C-86.92143677 502.2569165 -86.92143677 502.2569165 -87.98901367 501.43505859 C-89.51809221 500.25745586 -91.04390342 499.07560179 -92.56689453 497.89013672 C-96.79365105 494.60661786 -101.05510995 491.3686322 -105.3125 488.125 C-106.19381592 487.45154541 -107.07513184 486.77809082 -107.9831543 486.08422852 C-114.78614008 480.89448151 -121.66332843 475.81258858 -128.56689453 470.7578125 C-134.16552919 466.64678417 -139.64815091 462.43006531 -145 458 C-143.39290283 453.12198742 -140.60406215 449.36394297 -137.625 445.25 C-136.53238167 443.72277816 -135.43993855 442.19543095 -134.34765625 440.66796875 C-133.78965332 439.89114746 -133.23165039 439.11432617 -132.65673828 438.31396484 C-130.59743168 435.43773319 -128.56261342 432.54477971 -126.52929688 429.65014648 C-121.94501015 423.12547342 -117.30661775 416.64263967 -112.625 410.1875 C-107.41376776 403.00145213 -102.30724949 395.74723058 -97.2331543 388.46386719 C-93.3585303 382.91226336 -89.42058329 377.41168318 -85.4375 371.9375 C-80.97411462 365.80051443 -76.6367868 359.59107022 -72.375 353.3125 C-68.0667321 346.9662776 -63.65663202 340.72068231 -59.09106445 334.55737305 C-54.13068884 327.85345908 -49.34348643 321.03018982 -44.55126953 314.20556641 C-42.94322583 311.91927953 -41.32981806 309.63686461 -39.71484375 307.35546875 C-39.17657959 306.59476074 -38.63831543 305.83405273 -38.08374023 305.05029297 C-37.05900042 303.6023563 -36.03380296 302.15474335 -35.00805664 300.70751953 C-32.27645929 296.84376868 -29.60490089 292.95035677 -27 289 C-27.63927429 288.89523849 -28.27854858 288.79047699 -28.93719482 288.68254089 C-33.06131139 287.76348857 -37.00173379 286.42262029 -41.00488281 285.0793457 C-41.90535843 284.77981995 -42.80583405 284.48029419 -43.7335968 284.17169189 C-46.72442562 283.17598694 -49.71378633 282.17595027 -52.703125 281.17578125 C-54.8172892 280.47066142 -56.93152808 279.76576548 -59.0458374 279.06108093 C-63.50530124 277.5740704 -67.96408567 276.08504559 -72.42236328 274.59448242 C-78.0046816 272.72816996 -83.58824161 270.86560957 -89.17228031 269.00445175 C-112.22567614 261.31977849 -135.25726499 253.57595272 -158.24674988 245.70207214 C-171.16410844 241.27835903 -184.10316818 236.92440278 -197.0625 232.625 C-199.04366989 231.96629651 -201.02478942 231.30744151 -203.00585938 230.6484375 C-207.67000626 229.09724749 -212.33478689 227.54798022 -217 226 C-215.46479527 216.99090719 -212.90675447 208.28587517 -210.3515625 199.52734375 C-210.01427691 198.36800418 -210.01427691 198.36800418 -209.67017746 197.18524361 C-208.484114 193.11067638 -207.2925769 189.03775571 -206.09667969 184.96606445 C-204.86265513 180.76016312 -203.64878787 176.54871014 -202.43908119 172.33576107 C-201.5032492 169.09060508 -200.55244777 165.84997762 -199.59745407 162.61041451 C-199.14281345 161.0582901 -198.69393291 159.50446657 -198.25090408 157.94898796 C-197.63313982 155.78510177 -196.99444228 153.62850748 -196.35009766 151.47241211 C-195.99194977 150.2434874 -195.63380188 149.01456268 -195.26480103 147.74839783 C-194 145 -194 145 -192.3531189 144.03297424 C-186.16064435 143.94619913 -180.58641851 145.26354615 -174.74751282 147.21931458 C-174.06381298 147.44602567 -173.38011314 147.67273676 -172.67569512 147.90631789 C-170.40676819 148.66067704 -168.14156865 149.42564059 -165.8762207 150.19067383 C-164.24119885 150.73669798 -162.60595406 151.28205494 -160.97050476 151.82679749 C-156.54238115 153.30378199 -152.11738598 154.78994207 -147.69287133 156.27769685 C-143.04834679 157.8375725 -138.40088523 159.38864699 -133.75370789 160.94059753 C-124.94536723 163.88360758 -116.13951716 166.83399486 -107.33461589 169.78727692 C-94.44429827 174.11053308 -81.55051848 178.42344138 -68.6564436 182.73547649 C-67.70706191 183.05297401 -66.75768022 183.37047152 -65.77952939 183.69759017 C-63.88480057 184.33123571 -61.99006557 184.96486277 -60.09532422 185.59847087 C-54.57698699 187.44410815 -49.05944733 189.29210514 -43.54261649 191.14224017 C-40.09520251 192.29816293 -36.6473829 193.45287258 -33.19949532 194.60738182 C-31.61316388 195.13888889 -30.02701527 195.67094202 -28.44107437 196.20361328 C-26.25700715 196.93712225 -24.07227783 197.66862804 -21.8874054 198.3997345 C-20.67088948 198.80771176 -19.45437357 199.21568903 -18.20099354 199.63602924 C-12.48855997 201.49073153 -6.74039137 203.23372573 -1 205 C-0.505 169.36 -0.505 169.36 0 133 C-3.63 135.64 -7.26 138.28 -11 141 C-15.46558591 143.23279296 -18.32113817 143.37826938 -23 142 C-26.93657916 139.40185775 -29.20574581 136.78352216 -31.875 132.9375 C-34.91820343 128.73422424 -38.05166793 126.5524179 -43 125 C-56.99345055 122.88778105 -69.41762188 134.40781066 -80 142 C-81.37466036 142.97834199 -82.74963775 143.95623873 -84.125 144.93359375 C-86.429497 146.57370193 -88.72649813 148.22267161 -91.01953125 149.87890625 C-92.00308594 150.57886719 -92.98664062 151.27882813 -94 152 C-95.58361328 153.12728516 -95.58361328 153.12728516 -97.19921875 154.27734375 C-100 156 -100 156 -103 156 C-103 155.01 -103 154.02 -103 153 C-101.12607702 151.27499806 -99.28308965 149.76913125 -97.25 148.25 C-96.63237793 147.77973389 -96.01475586 147.30946777 -95.37841797 146.82495117 C-94.00546059 145.78171184 -92.62946559 144.742462 -91.25097656 143.70654297 C-88.87326777 141.90391993 -86.52606624 140.06583907 -84.1796875 138.22265625 C-68.07848581 125.69009172 -53.11972554 115.32660867 -31.875 117.53125 C-27.49607561 118.24520506 -24.56141379 119.68087455 -21.1875 122.53125 C-16.81678065 126.15075197 -13.89373116 127.66785888 -8.17578125 127.69921875 C-4.59851485 126.54961249 -3.27361889 125.01708241 -1 122 C-0.23797126 118.08559581 -0.31001933 114.21078759 -0.34057617 110.2331543 C-0.33009247 109.04248856 -0.31960876 107.85182281 -0.30880737 106.62507629 C-0.2849768 103.36899992 -0.28312533 100.11380665 -0.29110122 96.85768104 C-0.29422933 93.45163776 -0.26918316 90.04580347 -0.24714661 86.6398468 C-0.20971374 80.1942696 -0.1975591 73.74890337 -0.1945222 67.3032282 C-0.18937009 59.24306303 -0.15041225 51.18310672 -0.11132812 43.12304688 C-0.04177412 28.74863828 -0.02329777 14.37472322 0 0 Z " fill="#000000" transform="translate(2635,1255)"/>
<path d="M0 0 C36.114375 -0.020625 72.22875 -0.04125 109.4375 -0.0625 C120.82048584 -0.071604 132.20347168 -0.08070801 143.93139648 -0.09008789 C157.88293457 -0.09460449 157.88293457 -0.09460449 164.42420959 -0.09544373 C168.97096754 -0.09637147 173.51771368 -0.10010339 178.06446838 -0.10557556 C183.88110541 -0.11248233 189.69772552 -0.11448237 195.51436627 -0.11307228 C197.63846339 -0.11336673 199.76256116 -0.11532121 201.88665473 -0.11921513 C217.96903227 -0.14730554 233.98729059 -0.04438313 249.875 2.75 C251.39371704 3.01224365 251.39371704 3.01224365 252.94311523 3.27978516 C282.3825775 8.54831332 312.53443418 18.9339766 331 44 C336.78599077 52.81984361 341.02296634 61.83974497 344 72 C344.47953125 73.63388672 344.47953125 73.63388672 344.96875 75.30078125 C350.91014481 99.58898316 347.72702047 124.61954748 335 146 C324.94735639 161.98733682 310.47046518 173.81689551 293 181 C292.34 181 291.68 181 291 181 C291 181.66 291 182.32 291 183 C291.78632813 183.07476563 292.57265625 183.14953125 293.3828125 183.2265625 C298.24193369 184.26555386 302.40815095 186.23455886 306.875 188.375 C307.79740479 188.81545654 308.71980957 189.25591309 309.67016602 189.7097168 C333.73603466 201.52954083 352.99878323 219.74446073 363 245 C367.1172099 257.48003083 368.23945031 269.76414245 368.25 282.8125 C368.25067474 283.55643005 368.25134949 284.30036011 368.25204468 285.0668335 C368.23626772 295.99009207 367.88799065 306.39910261 365 317 C364.82839355 317.63454102 364.65678711 318.26908203 364.47998047 318.92285156 C357.49847894 343.96641469 340.71729528 365.20212028 318.14794922 378.0546875 C286.05948509 395.58594595 251.42503271 400.52553469 215.24414062 400.34057617 C212.83826461 400.33965417 210.4323878 400.34006272 208.02651215 400.34167194 C201.66309071 400.34234106 195.29984325 400.32512803 188.9364624 400.30384064 C182.93517593 400.28658094 176.93392885 400.28594188 170.93261719 400.28381348 C153.45505565 400.26815713 135.97752554 400.22627337 118.5 400.1875 C79.395 400.125625 40.29 400.06375 0 400 C0 268 0 136 0 0 Z M63 60 C63 93.99 63 127.98 63 163 C90.77146177 163.11669677 90.77146177 163.11669677 118.54296875 163.1953125 C129.8817475 163.21897018 141.22040664 163.24665461 152.55908203 163.30175781 C160.82005245 163.34188465 169.08092505 163.36749361 177.34199023 163.37635398 C181.7078659 163.38152544 186.07346195 163.39350041 190.43924713 163.42292023 C219.67618512 163.612024 247.65729935 163.03103012 270.75 142.5625 C280.44276526 131.52351734 284.66258672 120.64460925 283.81640625 105.7734375 C282.50442712 94.43901986 278.10104417 84.81062905 269.65625 77.02734375 C243.4516984 57.0271051 206.44381313 59.8405637 175.40044284 59.89860606 C171.43802995 59.90493024 167.47561601 59.90545047 163.51319885 59.90663147 C156.03744716 59.90971841 148.56171039 59.9178956 141.08596522 59.92798096 C130.96445034 59.94133426 120.84293128 59.94666335 110.7214098 59.95248318 C94.81426206 59.96183778 78.90714578 59.98177412 63 60 Z M63 223 C63 261.61 63 300.22 63 340 C92.92869913 340.08750027 92.92869913 340.08750027 122.85742188 340.14648438 C135.0741761 340.16423836 147.29086795 340.1850325 159.50756836 340.22631836 C168.40760718 340.25638115 177.30759507 340.27561274 186.20768327 340.28226548 C190.91272844 340.28614938 195.61762799 340.2951662 200.32262611 340.31719017 C204.76723974 340.33782321 209.21165024 340.34378075 213.65630722 340.33932304 C215.27218296 340.34013644 216.88806677 340.34594022 218.50390053 340.35761642 C233.27920599 340.45898586 248.50405305 339.26412418 262.5 334.1875 C263.23863281 333.92888184 263.97726562 333.67026367 264.73828125 333.40380859 C280.03445104 327.87535493 292.63527961 319.27054245 300.24609375 304.59765625 C306.38883401 290.71461326 306.48270642 274.82964715 301.21484375 260.67578125 C294.7829499 246.50906972 280.53404928 237.31799297 266.5 231.875 C253.25670106 226.95546981 239.14576031 224.23587437 225.06092834 223.44459534 C224.32131333 223.40244103 223.58169832 223.36028672 222.81967074 223.31685501 C215.22216695 222.91372211 207.63208806 222.8659961 200.02514648 222.88647461 C198.51526898 222.88675776 197.00539134 222.88659626 195.49551392 222.8860321 C191.45738069 222.88574912 187.41927811 222.89156401 183.38115191 222.89860606 C179.13846673 222.90492378 174.89578059 222.90544998 170.65309143 222.90663147 C162.64610071 222.90972025 154.6391239 222.91790005 146.63213927 222.92798096 C135.79311615 222.94132667 124.95408913 222.94666185 114.11505985 222.95248318 C97.07669618 222.96184201 80.03836184 222.98177715 63 223 Z " fill="#FFFFFF" transform="translate(2971,1325)"/>
<path d="M0 0 C36.114375 -0.020625 72.22875 -0.04125 109.4375 -0.0625 C120.82048584 -0.071604 132.20347168 -0.08070801 143.93139648 -0.09008789 C157.88293457 -0.09460449 157.88293457 -0.09460449 164.42420959 -0.09544373 C168.97096754 -0.09637147 173.51771368 -0.10010339 178.06446838 -0.10557556 C183.88110541 -0.11248233 189.69772552 -0.11448237 195.51436627 -0.11307228 C197.63846339 -0.11336673 199.76256116 -0.11532121 201.88665473 -0.11921513 C217.96872593 -0.14730501 233.98771545 -0.04544495 249.875 2.75 C250.88820312 2.9255542 251.90140625 3.1011084 252.9453125 3.28198242 C268.4778231 6.06871191 282.80099592 10.07101002 297 17 C297.99515625 17.48339844 298.9903125 17.96679688 300.015625 18.46484375 C310.41683069 23.82889411 319.86426039 30.66604677 327 40 C328.00160156 41.28390625 328.00160156 41.28390625 329.0234375 42.59375 C344.43037393 62.98359896 349.84072007 89.01034048 346.5 114.2421875 C343.07440394 136.08653051 331.59503076 155.6566783 313.9465332 169.03662109 C306.73577895 174.26679482 299.08709845 178.2882922 291 182 C291.5576001 182.22550537 292.1152002 182.45101074 292.68969727 182.68334961 C323.04670167 195.0600266 348.28512363 212.10816341 362 243 C366.66983453 255.87992711 368.37784622 268.92218656 368.3125 282.5625 C368.30758545 283.78541748 368.3026709 285.00833496 368.29760742 286.26831055 C367.90780708 316.69472563 358.18440199 342.77196867 336.45751953 364.60839844 C313.34233871 386.67816907 279.83902872 395.26514915 249 399 C248.3861984 399.08076875 247.7723968 399.16153749 247.13999516 399.24475378 C241.34043817 399.96097426 235.64568547 400.13899916 229.80638123 400.12025452 C228.32831497 400.12153854 228.32831497 400.12153854 226.82038879 400.12284851 C223.52924759 400.1244953 220.23815799 400.11899377 216.94702148 400.11352539 C214.54297163 400.11321888 212.13892168 400.11335285 209.73487186 400.11389065 C203.30846207 400.11411601 196.88207098 400.1083284 190.45566559 400.10128021 C184.42100466 400.095577 178.38634824 400.09531664 172.35168457 400.09460449 C154.71362058 400.08936127 137.07556005 400.07540008 119.4375 400.0625 C60.3159375 400.0315625 60.3159375 400.0315625 0 400 C0 268 0 136 0 0 Z M63 60 C63 93.99 63 127.98 63 163 C90.66697941 163.08749494 90.66697941 163.08749494 118.33398438 163.14648438 C129.62691363 163.16424095 140.91977542 163.18504245 152.21264648 163.22631836 C160.43952778 163.25637342 168.666354 163.27561094 176.89328867 163.28226548 C181.24280629 163.28615067 185.59216645 163.29517592 189.94163322 163.31719017 C194.0497269 163.33781093 198.15760083 163.34378315 202.26574135 163.33932304 C203.75990373 163.34013697 205.25407479 163.34594833 206.74819183 163.35761642 C230.68429968 163.53510334 253.59582246 157.95317624 271.9375 141.8125 C281.13524515 131.86582904 283.50784227 119.46430258 283.2734375 106.4375 C282.73691142 94.07083941 277.58146178 85.03564836 268.6875 76.75 C243.55698393 56.6123017 205.46553494 59.8423928 175.40044284 59.89860606 C171.43802995 59.90493024 167.47561601 59.90545047 163.51319885 59.90663147 C156.03744716 59.90971841 148.56171039 59.9178956 141.08596522 59.92798096 C130.96445034 59.94133426 120.84293128 59.94666335 110.7214098 59.95248318 C94.81426206 59.96183778 78.90714578 59.98177412 63 60 Z M63 223 C63 261.61 63 300.22 63 340 C92.75096468 340.08750126 92.75096468 340.08750126 122.50195312 340.14648438 C134.6462792 340.16423788 146.79054252 340.18503066 158.93481445 340.22631836 C167.78211557 340.25638258 176.62936543 340.27561308 185.47671622 340.28226548 C190.15381611 340.28614914 194.83076948 340.29516439 199.50782204 340.31719017 C203.92617116 340.3378255 208.34431593 340.34378031 212.76270866 340.33932304 C214.36890912 340.34013634 215.97511772 340.34593872 217.58127594 340.35761642 C242.85848612 340.53210134 271.14909103 336.18925367 290.07714844 318.04833984 C301.33186244 306.82058785 304.2916329 294.27888187 304.31689453 278.7331543 C304.11929326 265.27309268 299.24777868 254.89796495 289.6875 245.5 C265.13059517 224.47223119 230.77569273 222.80369162 200.02514648 222.88647461 C198.51526898 222.88675776 197.00539134 222.88659626 195.49551392 222.8860321 C191.45738069 222.88574912 187.41927811 222.89156401 183.38115191 222.89860606 C179.13846673 222.90492378 174.89578059 222.90544998 170.65309143 222.90663147 C162.64610071 222.90972025 154.6391239 222.91790005 146.63213927 222.92798096 C135.79311615 222.94132667 124.95408913 222.94666185 114.11505985 222.95248318 C97.07669618 222.96184201 80.03836184 222.98177715 63 223 Z " fill="#FFFFFF" transform="translate(4193,1325)"/>
<path d="M0 0 C55.5328125 -0.0928125 55.5328125 -0.0928125 112.1875 -0.1875 C123.84731201 -0.21481201 135.50712402 -0.24212402 147.52026367 -0.27026367 C161.83459473 -0.28381348 161.83459473 -0.28381348 168.55049133 -0.28633118 C173.20877938 -0.28910926 177.8669633 -0.30028395 182.52522278 -0.31672668 C188.49096935 -0.33750143 194.45656732 -0.34343738 200.42234671 -0.33921683 C202.59687372 -0.34009769 204.77140661 -0.34592854 206.94590223 -0.35764539 C247.80322623 -0.56733964 282.74592579 10.90673046 312.6875 39.25 C327.16021529 54.41954973 338.20462021 73.55261972 343 94 C343.16081055 94.67788574 343.32162109 95.35577148 343.48730469 96.05419922 C351.26482695 130.50782106 343.54448034 163.47662428 325 193 C322.51333281 196.50788575 319.83188927 199.76646036 317 203 C316.18917969 203.94359375 315.37835937 204.8871875 314.54296875 205.859375 C300.32770429 222.09290507 284.1546923 233.36623676 264.265625 241.58984375 C260.941592 242.90937586 260.941592 242.90937586 258 245 C258.48859497 245.66866089 258.48859497 245.66866089 258.98706055 246.35083008 C265.2842788 254.9832805 271.49997101 263.65780371 277.5 272.5 C282.28225783 279.54362997 287.18837548 286.48185305 292.19311523 293.36889648 C297.37040803 300.4944062 302.44968652 307.68653082 307.51611328 314.89111328 C310.00648786 318.43041167 312.50359792 321.96495184 315 325.5 C316.00003195 326.91664412 317.00003196 328.33331078 318 329.75 C318.495 330.45125 318.99 331.1525 319.5 331.875 C336 355.25 336 355.25 337.50048828 357.37573242 C338.49880954 358.78999378 339.4971818 360.20421914 340.49560547 361.6184082 C343.02171322 365.19658007 345.54688502 368.77540608 348.0703125 372.35546875 C348.5765918 373.073396 349.08287109 373.79132324 349.60449219 374.53100586 C350.60826636 375.95463098 351.61153204 377.37861477 352.61425781 378.80297852 C355.04718698 382.25420235 357.49518978 385.69277863 359.9765625 389.109375 C360.44433105 389.75559814 360.91209961 390.40182129 361.39404297 391.06762695 C362.27702476 392.28526425 363.16388187 393.50010374 364.05517578 394.71166992 C367 398.77772224 367 398.77772224 367 401 C357.29031777 401.04633264 347.58066182 401.08187394 337.87089157 401.10362434 C333.36229295 401.11406323 328.85376995 401.12822439 324.34521484 401.15087891 C319.99452216 401.17260348 315.64390222 401.18456783 311.29315948 401.18975449 C309.63296615 401.19345093 307.97277682 401.20066911 306.31261444 401.21146011 C303.98794436 401.22596996 301.66357524 401.22797816 299.33886719 401.22705078 C298.6519429 401.23424133 297.96501862 401.24143188 297.25727844 401.24884033 C293.66885713 401.2333418 291.01995703 401.01745 288 399 C286.57470703 397.34619141 286.57470703 397.34619141 285.2578125 395.3515625 C284.75644775 394.60398682 284.25508301 393.85641113 283.73852539 393.08618164 C282.93983032 391.86789673 282.93983032 391.86789673 282.125 390.625 C280.96074097 388.88597808 279.79533939 387.14772065 278.62890625 385.41015625 C278.02965332 384.51312988 277.43040039 383.61610352 276.81298828 382.69189453 C273.95148108 378.44317673 271.00912996 374.25243375 268.0625 370.0625 C266.88669224 368.38673735 265.71091113 366.710956 264.53515625 365.03515625 C263.95137207 364.20387207 263.36758789 363.37258789 262.76611328 362.51611328 C259.83978136 358.34708138 256.92021901 354.1733148 254 350 C252.83336611 348.33331039 251.66669943 346.66664373 250.5 345 C238.83333333 328.33333333 227.16666667 311.66666667 215.5 295 C214.92169434 294.17387207 214.34338867 293.34774414 213.74755859 292.49658203 C212.58894244 290.84136985 211.43041281 289.18609709 210.27197266 287.53076172 C207.23286512 283.18832319 204.19195536 278.84716132 201.1484375 274.5078125 C200.51679688 273.60675781 199.88515625 272.70570313 199.234375 271.77734375 C198.02920379 270.05820247 196.82350729 268.33942927 195.6171875 266.62109375 C195.070625 265.84121094 194.5240625 265.06132813 193.9609375 264.2578125 C193.48446777 263.5786377 193.00799805 262.89946289 192.51708984 262.19970703 C191 260 191 260 189.64498901 256.91082764 C186.6278042 253.5903961 186.0775185 253.53845246 181.8114624 253.24050903 C179.5956131 253.20523616 177.37909026 253.20344704 175.16308594 253.22705078 C173.93349277 253.21641539 172.70389961 253.20577999 171.43704605 253.19482231 C168.11330266 253.17173681 164.79157735 253.17443957 161.46792603 253.18968201 C158.34844067 253.19853695 155.22927202 253.17495794 152.10986328 253.15405273 C142.99000156 253.11180753 133.86995893 253.12157574 124.75 253.125 C104.3725 253.08375 83.995 253.0425 63 253 C63 301.51 63 350.02 63 400 C42.21 400 21.42 400 0 400 C0 268 0 136 0 0 Z M63 60 C63 103.56 63 147.12 63 192 C90.15817998 192.11665114 90.15817998 192.11665114 117.31640625 192.1953125 C128.40095473 192.21899227 139.48538105 192.24673976 150.56982422 192.30175781 C158.64470917 192.34181846 166.71949445 192.36747823 174.79447603 192.37635398 C179.06409335 192.38153643 183.33342571 192.39358388 187.60295105 192.42292023 C191.63475623 192.45039453 195.66616345 192.45838161 199.69805336 192.45243073 C201.16523221 192.45351685 202.63242663 192.46127805 204.09952354 192.4768219 C226.68510866 192.70405306 245.22430199 185.06535395 261.8125 169.625 C274.09970929 156.70844584 280.39463118 139.35566733 280.2109375 121.7578125 C279.17791895 103.35477836 270.45183907 90.92585366 257.59375 78.71484375 C233.86879182 58.19275492 201.31300058 59.6833128 171.90397739 59.79721212 C168.06170451 59.80990234 164.21942684 59.81090413 160.37713623 59.81326294 C153.13520731 59.81942491 145.89334037 59.83576242 138.65143847 59.85596192 C128.84144039 59.88271766 119.03142479 59.89333636 109.22139931 59.90496635 C93.81421998 59.92364827 78.4071713 59.96352853 63 60 Z " fill="#FFFFFF" transform="translate(3780,1325)"/>
<path d="M0 0 C55.56375 -0.0928125 55.56375 -0.0928125 112.25 -0.1875 C123.91891602 -0.21481201 135.58783203 -0.24212402 147.61035156 -0.27026367 C161.92919922 -0.28381348 161.92919922 -0.28381348 168.64593506 -0.28633118 C173.3076003 -0.28911072 177.96916162 -0.30029136 182.63079834 -0.31672668 C188.59904381 -0.33748603 194.56714076 -0.34344014 200.53541899 -0.33921683 C202.7119936 -0.3400984 204.88857405 -0.34593853 207.06511736 -0.35764539 C247.78679242 -0.5662865 282.46319632 10.8247558 312.0625 39.6875 C326.38970005 54.09750294 336.70049175 72.42299306 342 92 C342.31839844 93.11117188 342.63679688 94.22234375 342.96484375 95.3671875 C345.21519561 104.84562807 345.3151113 114.36764967 345.375 124.0625 C345.38294586 124.73683075 345.39089172 125.4111615 345.39907837 126.10592651 C345.70193097 159.61465845 330.78727944 188.36350517 308 212 C307.09507813 212.98226563 307.09507813 212.98226563 306.171875 213.984375 C293.69908335 227.18373704 276.89907191 236.66779507 260 243 C259.01 243 258.02 243 257 243 C259.94716454 248.39960121 263.28685569 253.30495657 266.9375 258.25 C271.57254613 264.5929713 276.09200474 270.99726854 280.5 277.5 C285.23449724 284.47442089 290.09439699 291.34104922 295.05249023 298.15795898 C300.9148816 306.22985179 306.61163743 314.41542863 312.31982422 322.59667969 C314.91005766 326.30174479 317.51615377 329.99552628 320.125 333.6875 C320.85601929 334.72209351 320.85601929 334.72209351 321.60180664 335.77758789 C322.57850604 337.15958101 323.55531218 338.54149869 324.53222656 339.92333984 C327.02320986 343.44767516 329.51144903 346.97394701 332 350.5 C332.99998722 351.91667568 333.99998722 353.33334236 335 354.75 C337 357.58333333 339 360.41666667 341 363.25 C341.49564453 363.95213623 341.99128906 364.65427246 342.50195312 365.37768555 C343.49554509 366.78532813 344.48903573 368.19304224 345.48242188 369.60083008 C348.0796114 373.28117733 350.67888339 376.96002999 353.28125 380.63671875 C353.82007812 381.39855469 354.35890625 382.16039062 354.9140625 382.9453125 C355.93944807 384.39499554 356.96544782 385.84424444 357.9921875 387.29296875 C359.3342388 389.19111865 360.6692101 391.09394217 362 393 C362.60908203 393.8655249 362.60908203 393.8655249 363.23046875 394.74853516 C366 398.76557018 366 398.76557018 366 401 C356.4379886 401.069544 346.8760644 401.12283356 337.31385517 401.15543652 C332.87361524 401.17108517 328.43354848 401.19230877 323.9934082 401.22631836 C319.70753975 401.25894044 315.42183776 401.27685904 311.13585472 401.28463173 C309.50159269 401.29017013 307.86733965 401.30098535 306.23314857 401.31719017 C303.94209814 401.33900272 301.65173346 401.34196539 299.3605957 401.34057617 C298.05709671 401.34723801 296.75359772 401.35389984 295.41059875 401.36076355 C290.95761381 400.88973932 288.30874493 399.49215341 285.36938477 396.14086914 C284.89815186 395.44598389 284.42691895 394.75109863 283.94140625 394.03515625 C283.39806641 393.24560547 282.85472656 392.45605469 282.29492188 391.64257812 C281.72322266 390.79115234 281.15152344 389.93972656 280.5625 389.0625 C279.31406293 387.24070664 278.06535758 385.41909709 276.81640625 383.59765625 C276.18234863 382.6658252 275.54829102 381.73399414 274.89501953 380.77392578 C271.96794459 376.48927937 268.98303202 372.24578016 266 368 C264.83301609 366.33355545 263.66635035 364.66688805 262.5 363 C261.63375 361.7625 261.63375 361.7625 260.75 360.5 C244.125 336.75 244.125 336.75 227.5 313 C226.92266113 312.1752417 226.34532227 311.3504834 225.75048828 310.50073242 C224.58215033 308.83165493 223.41385616 307.16254678 222.24560547 305.4934082 C219.35486511 301.36337662 216.46340146 297.23385554 213.5703125 293.10546875 C212.42182008 291.46618431 211.27338263 289.82686135 210.125 288.1875 C209.56208252 287.38401123 208.99916504 286.58052246 208.41918945 285.75268555 C205.13608951 281.06287264 201.86286097 276.36635471 198.59765625 271.6640625 C197.86337402 270.60678955 197.1290918 269.5495166 196.37255859 268.46020508 C194.93574127 266.39038544 193.49984204 264.31992814 192.06494141 262.2487793 C191.41831543 261.31718994 190.77168945 260.38560059 190.10546875 259.42578125 C189.52949951 258.59473877 188.95353027 257.76369629 188.36010742 256.9074707 C187.13925108 255.08418058 187.13925108 255.08418058 186 254 C184.39351485 253.89184143 182.78230777 253.85315455 181.17222595 253.84178162 C180.12967872 253.83200759 179.08713148 253.82223356 178.01299191 253.81216335 C176.85491307 253.8063931 175.69683424 253.80062284 174.50366211 253.79467773 C173.27443055 253.78464501 172.04519899 253.77461229 170.77871799 253.76427555 C167.44307235 253.73799519 164.10745259 253.71601404 160.77176666 253.69608307 C157.64571002 253.67650732 154.51969815 253.65157739 151.39367676 253.6270752 C142.24165674 253.55848085 133.08957364 253.49852219 123.9375 253.4375 C103.498125 253.293125 83.05875 253.14875 62 253 C62 301.51 62 350.02 62 400 C41.54 400 21.08 400 0 400 C0 268 0 136 0 0 Z M62 60 C62 103.56 62 147.12 62 192 C89.15817998 192.11665114 89.15817998 192.11665114 116.31640625 192.1953125 C127.40095473 192.21899227 138.48538105 192.24673976 149.56982422 192.30175781 C157.64470917 192.34181846 165.71949445 192.36747823 173.79447603 192.37635398 C178.06409335 192.38153643 182.33342571 192.39358388 186.60295105 192.42292023 C190.63475623 192.45039453 194.66616345 192.45838161 198.69805336 192.45243073 C200.16523221 192.45351685 201.63242663 192.46127805 203.09952354 192.4768219 C222.74548891 192.67447786 241.13195218 187.3338215 256 174 C256.75925781 173.32195312 257.51851562 172.64390625 258.30078125 171.9453125 C263.98602748 166.57538245 268.12815795 160.77319628 272 154 C272.40089844 153.32195312 272.80179688 152.64390625 273.21484375 151.9453125 C280.44487217 138.79484571 281.41038642 121.28783974 277.4375 106.9375 C275.17499813 100.70962381 271.90467952 95.32924391 268 90 C267.52691406 89.35417969 267.05382813 88.70835938 266.56640625 88.04296875 C254.17123049 72.48754988 234.33662394 63.73178862 215 61 C205.88620655 60.06794603 196.82749947 59.86040104 187.67260742 59.88647461 C186.29139712 59.88675753 184.91018666 59.8865967 183.52897644 59.8860321 C179.82323932 59.88574824 176.11753536 59.89157782 172.41180587 59.89860606 C168.52277408 59.90490869 164.63374131 59.90544882 160.7447052 59.90663147 C153.39985928 59.90972459 146.05502847 59.91791044 138.71018916 59.92798096 C128.7712571 59.94130893 118.83232083 59.94665834 108.89338207 59.95248318 C93.26224343 59.96185194 77.63113664 59.98178425 62 60 Z " fill="#FFFFFF" transform="translate(4960,1325)"/>
<path d="M0 0 C2.40761634 2.2667935 4.71742219 4.60814984 7 7 C7.78375 7.78375 8.5675 8.5675 9.375 9.375 C10.24125 10.24125 11.1075 11.1075 12 12 C12.91652344 12.84691406 12.91652344 12.84691406 13.8515625 13.7109375 C43.21656605 41.58099542 61.00926116 83.33507288 66 123 C66.0942627 123.72823975 66.18852539 124.45647949 66.28564453 125.20678711 C72.17232859 176.1808375 58.9482309 228.2010431 27.6875 269.01953125 C25.50696564 271.72627095 23.2778587 274.37480823 21 277 C20.29359375 277.81726562 19.5871875 278.63453125 18.859375 279.4765625 C8.78461999 290.89220217 -1.79046158 300.92682215 -14 310 C-15.24330078 310.93585938 -15.24330078 310.93585938 -16.51171875 311.890625 C-45.50940914 332.9619518 -79.77969548 346.1842836 -115 352 C-115.93875977 352.16226074 -116.87751953 352.32452148 -117.84472656 352.49169922 C-147.44478353 357.40476109 -180.51194496 357.49621426 -210 352 C-210.9595459 351.83371094 -211.9190918 351.66742187 -212.90771484 351.49609375 C-234.90006501 347.64341927 -255.94644933 340.81626845 -276 331 C-276.77682129 330.62117676 -277.55364258 330.24235352 -278.35400391 329.85205078 C-325.47326663 306.60197592 -363.14589123 265.91461791 -380.75390625 216.17578125 C-384.4111017 205.32461476 -387.01588899 194.26975054 -389 183 C-389.226875 181.741875 -389.45375 180.48375 -389.6875 179.1875 C-393.86308283 150.88632749 -391.74846338 120.4646552 -384 93 C-383.71697021 91.97640381 -383.71697021 91.97640381 -383.42822266 90.93212891 C-376.25676155 65.67049563 -363.14460125 41.85534929 -346 22 C-345.34128906 21.23171875 -344.68257812 20.4634375 -344.00390625 19.671875 C-302.43264239 -27.62020499 -244.55970269 -52.11890484 -182.21533203 -56.484375 C-116.40894061 -60.59665663 -50.43155554 -43.59737278 0 0 Z M-254 26 C-255.56621094 26.82951172 -255.56621094 26.82951172 -257.1640625 27.67578125 C-265.46136891 32.26228704 -272.73747284 37.95192023 -280 44 C-281.38251953 45.14855469 -281.38251953 45.14855469 -282.79296875 46.3203125 C-288.95681362 51.65275504 -294.03926147 57.54832913 -299 64 C-299.65613281 64.81726562 -300.31226563 65.63453125 -300.98828125 66.4765625 C-319.34751869 90.24423262 -327.22395909 119.21087711 -327.25 148.875 C-327.25067474 149.56530304 -327.25134949 150.25560608 -327.25204468 150.96682739 C-327.19030392 190.78038184 -311.19832616 223.37059828 -283.48828125 251.5546875 C-271.24214747 263.29447271 -256.42830613 272.10750768 -241 279 C-240.38592285 279.27537598 -239.7718457 279.55075195 -239.13916016 279.83447266 C-192.82980305 300.24010969 -137.70825064 299.50363629 -90.72216797 282.06884766 C-84.22091323 279.51615768 -78.09719823 276.39190983 -72 273 C-70.9378125 272.42507813 -69.875625 271.85015625 -68.78125 271.2578125 C-37.41851532 253.71731398 -12.93261841 224.28156774 -2 190 C1.75281376 176.46578144 3.23812551 163.60257496 3.25 149.5625 C3.25067474 148.84690918 3.25134949 148.13131836 3.25204468 147.39404297 C3.23592701 136.63768398 2.77704382 126.45016089 0 116 C-0.17160645 115.34757324 -0.34321289 114.69514648 -0.52001953 114.02294922 C-8.44501606 84.62468238 -25.64800402 58.43199695 -50 40 C-50.53641113 39.59394531 -51.07282227 39.18789062 -51.62548828 38.76953125 C-108.52523454 -3.95046306 -191.87060881 -7.83061173 -254 26 Z " fill="#FFFFFF" transform="translate(1143,1376)"/>
<path d="M0 0 C102.3 0 204.6 0 310 0 C310 19.8 310 39.6 310 60 C228.16 60 146.32 60 62 60 C62 94.65 62 129.3 62 165 C133.61 165 205.22 165 279 165 C279 184.8 279 204.6 279 225 C207.39 225 135.78 225 62 225 C62 262.95 62 300.9 62 340 C143.84 340 225.68 340 310 340 C310 359.8 310 379.6 310 400 C207.7 400 105.4 400 0 400 C0 268 0 136 0 0 Z " fill="#FFFFFF" transform="translate(4597,1325)"/>
<path d="M0 0 C15.34426156 14.02767126 15.34426156 14.02767126 19.8125 21.4375 C19.66898119 24.88195145 17.94724089 26.76225835 15.6875 29.25 C14.74003906 30.29607422 14.74003906 30.29607422 13.7734375 31.36328125 C11.42109104 33.85152024 9.00126204 36.26100989 6.55859375 38.66015625 C4.74772357 40.50343574 3.05928646 42.41572799 1.375 44.375 C-1.66136208 47.90044053 -4.88969011 51.16228254 -8.20703125 54.421875 C-10.19146451 56.44153488 -12.03695957 58.53448084 -13.875 60.6875 C-16.41592427 63.64802644 -19.01736462 66.13194699 -22.1875 68.4375 C-26.0871762 64.62898506 -29.90640446 60.834376 -33.375 56.625 C-56.65754198 29.62150382 -93.30222794 13.87524925 -128.1875 10.4375 C-158.4236593 9.03508074 -188.68457146 10.55423256 -216.1875 24.4375 C-216.95320313 24.80359375 -217.71890625 25.1696875 -218.5078125 25.546875 C-227.62991878 30.187389 -235.70053262 37.13525056 -240.1875 46.4375 C-240.50460937 47.05367187 -240.82171875 47.66984375 -241.1484375 48.3046875 C-245.44811586 58.44246126 -244.57760922 72.67455607 -240.55078125 82.70703125 C-232.84760681 98.13545227 -219.27528313 106.35394883 -203.28076172 111.75195312 C-202.58998535 111.97818359 -201.89920898 112.20441406 -201.1875 112.4375 C-200.45418457 112.67919922 -199.72086914 112.92089844 -198.96533203 113.16992188 C-176.15177199 120.51221706 -152.43863097 124.13380268 -128.82290649 127.80529785 C-30.99615732 143.02362644 -30.99615732 143.02362644 5.8125 174.4375 C6.82376953 175.27667969 6.82376953 175.27667969 7.85546875 176.1328125 C23.67035425 190.4826611 31.05446441 211.21428828 32.09765625 232.078125 C32.93119798 260.82638385 24.73096106 288.00047721 6.04638672 309.98193359 C4.9907344 311.22724406 3.96306815 312.49618647 2.94140625 313.76953125 C-18.88075131 340.30150699 -55.50186628 353.6960381 -88.125 360.125 C-89.65942749 360.42893677 -89.65942749 360.42893677 -91.22485352 360.73901367 C-108.35851637 363.95787015 -125.21714685 364.81239006 -142.625 364.75 C-143.68131622 364.74817719 -144.73763245 364.74635437 -145.82595825 364.74447632 C-162.1209805 364.69719616 -178.08785692 364.17190062 -194.1875 361.4375 C-195.24324219 361.26057617 -196.29898438 361.08365234 -197.38671875 360.90136719 C-245.20454357 352.63179712 -285.280339 333.17122222 -320.1875 299.4375 C-321.05117188 298.60347656 -321.91484375 297.76945312 -322.8046875 296.91015625 C-325.87587569 293.88959204 -328.65506248 290.93104332 -331.1875 287.4375 C-329.54478782 283.72585842 -327.23857313 280.75583704 -324.75 277.5625 C-324.30970459 276.99587646 -323.86940918 276.42925293 -323.41577148 275.84545898 C-322.01039284 274.03960567 -320.59963716 272.23807186 -319.1875 270.4375 C-318.73632812 269.86112793 -318.28515625 269.28475586 -317.8203125 268.69091797 C-315.54898456 265.79021556 -313.2729009 262.8933283 -310.9921875 260 C-309.07470905 257.56715717 -307.16388003 255.12929283 -305.2578125 252.6875 C-300.68375416 246.83322755 -296.10041829 241.01432617 -291.1875 235.4375 C-285.59663157 240.07437104 -280.51720593 245.06377974 -275.4375 250.25 C-268.96758076 256.78090055 -262.4995527 262.8549448 -255.1875 268.4375 C-254.22328125 269.21867187 -253.2590625 269.99984375 -252.265625 270.8046875 C-215.31323055 300.53804071 -169.62727951 311.25907372 -122.72412109 307.1328125 C-96.57386984 304.18842115 -63.42593223 296.43002756 -45.4140625 275.36328125 C-36.95266367 264.27777772 -34.82134626 252.01539535 -36.1875 238.4375 C-38.3069461 228.74520156 -43.46454659 220.60017371 -51.6484375 214.9296875 C-82.61876993 196.72866136 -123.15270667 192.94415183 -158.0625 187.8125 C-207.79889098 180.47503636 -263.11788909 167.71662274 -295.3046875 125.671875 C-310.11157039 104.77461386 -314.10165348 77.63863751 -310.3671875 52.6081543 C-305.68379241 25.71911402 -290.3672511 3.01145412 -268.3125 -12.8125 C-246.5525506 -27.94907604 -222.08172491 -37.30105208 -196.1875 -42.5625 C-195.50848633 -42.70284668 -194.82947266 -42.84319336 -194.12988281 -42.98779297 C-128.16029888 -56.26616584 -51.39061533 -45.67196039 0 0 Z " fill="#FFFFFF" transform="translate(713.1875,1366.5625)"/>
<path d="M0 0 C20.46 0 40.92 0 62 0 C63 1 63 1 63.12304783 3.80923557 C63.12212604 5.07670093 63.12120424 6.34416628 63.12025452 7.65003967 C63.12111053 8.35156158 63.12196655 9.0530835 63.12284851 9.77586365 C63.12451347 12.15146363 63.11896433 14.52699427 63.11352539 16.90258789 C63.11321929 18.62482673 63.11335214 20.34706569 63.11389065 22.06930447 C63.11411719 26.69781216 63.10830487 31.32629421 63.10128021 35.95479584 C63.09560182 40.29176416 63.095318 44.62872613 63.09460449 48.96569824 C63.08934896 61.66463558 63.07538792 74.36356811 63.0625 87.0625 C63.041875 115.421875 63.02125 143.78125 63 173 C147.15 173 231.3 173 318 173 C318 115.91 318 58.82 318 0 C338.79 0 359.58 0 381 0 C381 132 381 264 381 400 C360.21 400 339.42 400 318 400 C318 344.89 318 289.78 318 233 C233.85 233 149.7 233 63 233 C63 288.11 63 343.22 63 400 C42.21 400 21.42 400 0 400 C0 268 0 136 0 0 Z " fill="#FFFFFF" transform="translate(2004,1325)"/>
<path d="M0 0 C23.43 0 46.86 0 71 0 C78.86848073 15.73696145 78.86848073 15.73696145 81.3671875 21.28515625 C81.64374176 21.89665024 81.92029602 22.50814423 82.20523071 23.13816833 C82.79318033 24.4387529 83.37995425 25.73986958 83.96557617 27.04150391 C85.58299558 30.63586575 87.21009607 34.22584812 88.8359375 37.81640625 C89.17514221 38.56608673 89.51434692 39.31576721 89.86383057 40.08816528 C93.70698134 48.57513267 97.60371273 57.03733366 101.5 65.5 C106.88233421 77.19563798 112.2413754 88.90138311 117.5625 100.625 C122.67201417 111.88211752 127.79556043 123.13265246 132.9375 134.375 C133.2693631 135.1006012 133.6012262 135.82620239 133.94314575 136.5737915 C135.62317768 140.24688389 137.30347354 143.91985546 138.98388672 147.59277344 C141.99108477 154.16600521 144.9959587 160.74029943 148.00100708 167.31451416 C149.66724276 170.95971967 151.333629 174.60485635 153 178.25 C153.66666739 179.708333 154.33333405 181.16666634 155 182.625 C155.33 183.346875 155.66 184.06875 156 184.8125 C223 331.375 223 331.375 223.99977112 333.56201172 C224.66718823 335.02197837 225.33461785 336.4819393 226.00205994 337.94189453 C227.65734699 341.56269154 229.31242423 345.18358414 230.96704102 348.8046875 C234.10251118 355.6660133 237.24027362 362.52626801 240.38485718 369.38342285 C241.87705629 372.63766609 243.36813844 375.89242054 244.85913086 379.1472168 C245.57308866 380.70492821 246.28759915 382.26238644 247.00268555 383.81958008 C247.99145342 385.97283973 248.97834776 388.12694878 249.96484375 390.28125 C250.25882553 390.9201416 250.55280731 391.5590332 250.85569763 392.21728516 C252.0327474 394.79181324 253.10377414 397.31132242 254 400 C231.23 400 208.46 400 185 400 C175.8355074 381.67101479 175.8355074 381.67101479 171.92626953 372.93847656 C171.64350159 372.30816528 171.36073364 371.677854 171.06939697 371.02844238 C170.77837097 370.3796814 170.48734497 369.73092041 170.1875 369.0625 C168.89976725 366.20323477 167.60888526 363.34540395 166.31640625 360.48828125 C165.97869202 359.74158173 165.64097778 358.9948822 165.29302979 358.22555542 C162.51666367 352.10358214 159.68514679 346.00816233 156.83984375 339.91796875 C156.40598862 338.98803604 155.97213348 338.05810333 155.52513123 337.09999084 C153.8002202 333.40352889 152.0751508 329.70719413 150.33920288 326.01589966 C149.13028979 323.44506173 147.92791007 320.87125493 146.7265625 318.296875 C146.36372665 317.53058273 146.00089081 316.76429047 145.62705994 315.97477722 C145.12838158 314.902033 145.12838158 314.902033 144.61962891 313.80761719 C144.32955963 313.18989441 144.03949036 312.57217163 143.7406311 311.93572998 C143 310 143 310 142 305 C70.72 305.33 -0.56 305.66 -74 306 C-88.95782874 338.24591806 -88.95782874 338.24591806 -103.82519531 370.53344727 C-104.89697331 372.8709326 -105.97170226 375.20704332 -107.046875 377.54296875 C-107.34487 378.19516891 -107.64286499 378.84736908 -107.94989014 379.51933289 C-111.13909669 386.43596899 -114.58730384 393.17460768 -118 400 C-139.45 400 -160.9 400 -183 400 C-182.09136491 395.45682456 -180.91030254 392.36593237 -178.9296875 388.234375 C-178.61711502 387.57733078 -178.30454254 386.92028656 -177.98249817 386.24333191 C-177.30609279 384.82232797 -176.62729993 383.40245854 -175.94638062 381.98361206 C-174.10131519 378.13702352 -172.27580764 374.28116929 -170.44921875 370.42578125 C-170.07382462 369.63430191 -169.69843048 368.84282257 -169.31166077 368.02735901 C-165.686144 360.36845546 -162.17483023 352.66007262 -158.6875 344.9375 C-153.03106741 332.42412928 -147.28656322 319.95371233 -141.5 307.5 C-135.7810445 295.18993727 -130.09792556 282.86558396 -124.5 270.5 C-118.95867144 258.26226492 -113.34260368 246.06057159 -107.6875 233.875 C-107.28825317 233.01463135 -106.88900635 232.1542627 -106.47766113 231.26782227 C-104.85986183 227.78175095 -103.24188793 224.29576074 -101.62368774 220.80987549 C-97.32300353 211.54428535 -93.03272856 202.27390266 -88.75 193 C-88.37562805 192.1893811 -88.0012561 191.37876221 -87.61553955 190.5435791 C-82.25170556 178.92488761 -76.93866995 167.28403675 -71.65753174 155.62756348 C-65.57925149 142.21722759 -59.38980863 128.85935144 -53.18994141 115.50488281 C-47.91421022 104.13960944 -42.66302754 92.76344138 -37.4375 81.375 C-30.81289191 66.93818172 -24.16567875 52.51195507 -17.50170898 38.09326172 C-11.64127863 25.4074278 -5.8224676 12.70356568 0 0 Z M33 66 C32.70456299 66.7213916 32.40912598 67.4427832 32.10473633 68.18603516 C20.04195839 97.59672144 7.33674053 126.66833085 -5.95166016 155.54443359 C-8.98196941 162.13186664 -11.99322439 168.72800691 -15.00576782 175.32357788 C-16.65665709 178.937454 -18.30888797 182.55071667 -19.9609375 186.1640625 C-22.3931608 191.48430123 -24.82480696 196.80480334 -27.25592041 202.12554932 C-28.69864722 205.28305632 -30.14155361 208.44048124 -31.58447266 211.59790039 C-32.26490039 213.08695469 -32.94524247 214.57604813 -33.62548828 216.06518555 C-34.26644466 217.46830376 -34.90753452 218.87136101 -35.54876709 220.27435303 C-36.15910069 221.60997221 -36.76901643 222.94578244 -37.378479 224.28179932 C-38.8342005 227.46907274 -40.30125211 230.65022678 -41.79199219 233.82128906 C-42.34274414 234.9965918 -42.89349609 236.17189453 -43.4609375 237.3828125 C-43.95126465 238.42066895 -44.4415918 239.45852539 -44.94677734 240.52783203 C-46.13064822 242.85880096 -46.13064822 242.85880096 -46 245 C6.8 245 59.6 245 114 245 C109.9708754 235.29061293 109.9708754 235.29061293 105.65234375 225.7421875 C105.21296478 224.80935692 105.21296478 224.80935692 104.76470947 223.85768127 C104.14442107 222.54130076 103.52300111 221.22545289 102.90048218 219.91012573 C101.22470499 216.36860922 99.55837403 212.82264595 97.890625 209.27734375 C97.55584641 208.56624954 97.22106781 207.85515533 96.87614441 207.12251282 C92.43898486 197.69262192 88.08813219 188.2231175 83.73144531 178.75585938 C81.73072811 174.4125321 79.72046084 170.07363297 77.7109375 165.734375 C48.10968489 101.79770793 48.10968489 101.79770793 38.6484375 76.3671875 C38.20757813 75.18382812 37.76671875 74.00046875 37.3125 72.78125 C36.91675781 71.69908203 36.52101563 70.61691406 36.11328125 69.50195312 C35.25671873 66.86362112 35.25671873 66.86362112 33 66 Z " fill="#FFFFFF" transform="translate(3510,1325)"/>
<path d="M0 0 C20.46 0 40.92 0 62 0 C62.029729 9.8395752 62.029729 9.8395752 62.06005859 19.87792969 C62.12707114 41.59101075 62.20461177 63.30404489 62.28752708 85.01707077 C62.33752561 98.17705895 62.3839694 111.33704129 62.421875 124.49707031 C62.45494497 135.97507324 62.49485765 147.45302914 62.54279006 158.93097997 C62.56790672 165.00141626 62.58973076 171.07182195 62.60334396 177.14229584 C62.61630024 182.87142838 62.63849658 188.60045515 62.66738319 194.32952881 C62.67635415 196.41744076 62.68212422 198.50536969 62.68421364 200.59329987 C62.73242479 241.50073772 70.81373837 276.77859276 99.875 307.25 C127.53000329 333.45534586 162.49681685 343.0222912 199.85742188 342.140625 C207.36357383 341.80473753 214.66479167 340.57574952 222 339 C223.89878906 338.59974609 223.89878906 338.59974609 225.8359375 338.19140625 C255.49937687 331.0759757 282.05323133 313.54194702 299 288 C300.01900391 286.48792969 300.01900391 286.48792969 301.05859375 284.9453125 C307.99616349 274.21765268 312.3494886 262.98068767 315.75 250.75 C315.94875732 250.06147949 316.14751465 249.37295898 316.35229492 248.66357422 C320.52041624 232.71644566 320.30266276 215.82003421 320.31884766 199.46411133 C320.32817092 197.27414083 320.33834305 195.08417381 320.34928894 192.89421082 C320.37633294 187.01123338 320.39166143 181.12827953 320.40471697 175.24525666 C320.42046089 169.07401498 320.44721454 162.9028207 320.4727478 156.73161316 C320.51933781 145.07332748 320.55617699 133.41503268 320.58942068 121.75670213 C320.62778271 108.47232327 320.67715548 95.18799815 320.72740483 81.90365946 C320.83043017 54.60247074 320.91833226 27.30126154 321 0 C340.47 0 359.94 0 380 0 C380.06631134 30.07270446 380.12163605 60.14536804 380.15319599 90.21812535 C380.15694748 93.77985713 380.1608305 97.34158876 380.16479492 100.90332031 C380.16558185 101.61230641 380.16636878 102.32129251 380.16717956 103.05176304 C380.18018342 114.48591003 380.20380912 125.92001111 380.23145839 137.354131 C380.25965315 149.11314341 380.27620576 160.87213201 380.28226548 172.63117683 C380.28598902 179.22486114 380.29521879 185.81846064 380.31719017 192.41211319 C380.33775657 198.63534221 380.34379362 204.85842624 380.33932304 211.08168602 C380.34013932 213.34938409 380.34598357 215.6170877 380.35761642 217.88475609 C380.44831071 236.49861372 379.20751107 254.92221993 374.1875 272.9375 C373.79957275 274.36848022 373.79957275 274.36848022 373.40380859 275.82836914 C365.14419753 305.44240166 348.96734622 331.59591907 327 353 C326.52304688 353.53367187 326.04609375 354.06734375 325.5546875 354.6171875 C314.99271495 366.03169595 300.75591131 374.93825519 287 382 C286.29294922 382.36577148 285.58589844 382.73154297 284.85742188 383.10839844 C235.91945439 408.1225352 175.10807841 410.68914576 122.91577148 394.65820312 C100.67597937 387.43334709 77.86817911 376.47255018 61 360 C59.67258606 358.84731442 58.33920049 357.70147052 57 356.5625 C21.87479839 325.66340746 3.92570537 281.96748131 0 236 C-0.44937998 227.87531223 -0.3830001 219.74530638 -0.34057617 211.61132812 C-0.33972707 209.28269461 -0.34021055 206.9540603 -0.34190369 204.62542725 C-0.34275402 198.38730513 -0.32528663 192.14936094 -0.30418181 185.91127968 C-0.28525208 179.36106934 -0.28365187 172.81085359 -0.28010559 166.26062012 C-0.27238103 155.29350757 -0.25322537 144.32645636 -0.22631836 133.359375 C-0.19866662 122.07682611 -0.17748791 110.7942948 -0.16479492 99.51171875 C-0.16400675 98.81309316 -0.16321858 98.11446756 -0.16240653 97.3946715 C-0.15849065 93.88892602 -0.15469971 90.38318042 -0.15097082 86.87743473 C-0.12000749 57.91824099 -0.06477737 28.95914023 0 0 Z " fill="#FFFFFF" transform="translate(1239,1325)"/>
<path d="M0 0 C44.18872641 -0.02258355 88.37745143 -0.04049725 132.56618246 -0.05106533 C137.77727595 -0.05231611 142.98836942 -0.05361042 148.19946289 -0.05493164 C149.75568441 -0.05532511 149.75568441 -0.05532511 151.34334476 -0.05572652 C168.16533957 -0.06008363 184.98733099 -0.0679714 201.80932378 -0.0771528 C219.05670766 -0.0864882 236.30408976 -0.09205537 253.55147606 -0.09408849 C264.2030554 -0.09546396 274.85462513 -0.09981581 285.50620151 -0.10791647 C292.79994081 -0.11318253 300.09367511 -0.11480462 307.38741618 -0.11350138 C311.60212624 -0.11285778 315.81681946 -0.11387797 320.03152657 -0.11920547 C323.88355156 -0.12403928 327.73554824 -0.12433878 331.58757449 -0.12089889 C332.98731441 -0.12047318 334.38705604 -0.12176908 335.78679257 -0.12488318 C337.67709918 -0.12884698 339.56741636 -0.12615645 341.45772457 -0.12304783 C342.51144849 -0.12342755 343.5651724 -0.12380727 344.65082735 -0.1241985 C347 0 347 0 348 1 C348 20.47 348 39.94 348 60 C300.15 60 252.3 60 203 60 C203 172.2 203 284.4 203 400 C182.21 400 161.42 400 140 400 C140 287.8 140 175.6 140 60 C93.8 60 47.6 60 0 60 C0 40.2 0 20.4 0 0 Z " fill="#FFFFFF" transform="translate(1635,1325)"/>
<path d="M0 0 C27.72 0 55.44 0 84 0 C84 40.26 84 80.52 84 122 C77 116 77 116 75.1875 113.4375 C69.71889916 107.3439162 60.62175656 104.5681592 52.6953125 103.59375 C43.95746035 103.36430968 35.95246256 104.5834089 27.4375 106.5625 C26.43412598 106.789375 25.43075195 107.01625 24.39697266 107.25 C15.39521523 109.49281321 8.78608246 112.89982818 0 117 C0 78.39 0 39.78 0 0 Z " fill="#000000" transform="translate(2640,1255)"/>
<path d="M0 0 C1.65 0 3.3 0 5 0 C5.33 38.28 5.66 76.56 6 116 C12.93 112.535 12.93 112.535 20 109 C24.1793247 107.67021487 28.12506901 106.51395689 32.375 105.5625 C33.45499268 105.31588623 34.53498535 105.06927246 35.64770508 104.81518555 C50.22864616 101.66822768 63.59266076 101.21479622 76.95703125 109.1640625 C79.89309121 111.44163935 82.13094001 114.35281482 84.5 117.1875 C87.41591681 120.58300839 89.45379622 122.24229937 94 123 C107.14719787 123.66688685 119.39239822 116.83185519 130.1796875 109.98046875 C146.55705629 99.59529019 161.08827494 96.89885699 180.0859375 101.01953125 C190.82629395 103.61713626 202.63345386 106.63345386 210.625 114.625 C211.07875 115.40875 211.5325 116.1925 212 117 C211 120 211 120 209 121 C200.45334714 122.1328617 194.47082362 120.19546848 186.7890625 116.6015625 C177.89962482 112.63028748 166.71268345 109.81505262 157 111 C155.97132813 111.07154297 155.97132813 111.07154297 154.921875 111.14453125 C143.92928362 112.62734484 134.72028834 122.10873765 126.60571289 129.10522461 C116.79089394 137.53181738 108.46596655 142.77336018 95.25 142.40625 C87.45433795 141.43179224 81.67583338 137.61181609 76.78125 131.5859375 C74.06144557 127.63744949 71.65333692 123.49577797 69.37084961 119.27978516 C66.58614257 114.32734592 63.48274217 111.25728337 57.9765625 109.26953125 C42.16214609 107.11301992 24.26632827 111.01370535 11 120 C7.05955721 123.8947076 5.44042553 126.19624729 5.31443787 131.9503479 C5.32306351 132.6955368 5.33168915 133.44072571 5.34057617 134.20849609 C5.33009247 135.00916504 5.31960876 135.80983398 5.30880737 136.63476562 C5.28015 139.26472165 5.28633761 141.89335391 5.29296875 144.5234375 C5.27984801 146.35333905 5.26454263 148.18322614 5.24714661 150.01309204 C5.20732755 154.81682998 5.19710816 159.62018877 5.19311523 164.42407227 C5.18377797 169.33100869 5.14636069 174.2377229 5.11132812 179.14453125 C5.04678379 188.76301048 5.01351783 198.38132315 5 208 C3.35 207.67 1.7 207.34 0 207 C0 182.58 0 158.16 0 133 C-3.63 135.64 -7.26 138.28 -11 141 C-15.46558591 143.23279296 -18.32113817 143.37826938 -23 142 C-26.93657916 139.40185775 -29.20574581 136.78352216 -31.875 132.9375 C-34.91820343 128.73422424 -38.05166793 126.5524179 -43 125 C-56.99345055 122.88778105 -69.41762188 134.40781066 -80 142 C-81.37466036 142.97834199 -82.74963775 143.95623873 -84.125 144.93359375 C-86.429497 146.57370193 -88.72649813 148.22267161 -91.01953125 149.87890625 C-92.00308594 150.57886719 -92.98664062 151.27882813 -94 152 C-95.58361328 153.12728516 -95.58361328 153.12728516 -97.19921875 154.27734375 C-100 156 -100 156 -103 156 C-103 155.01 -103 154.02 -103 153 C-101.12607702 151.27499806 -99.28308965 149.76913125 -97.25 148.25 C-96.63237793 147.77973389 -96.01475586 147.30946777 -95.37841797 146.82495117 C-94.00546059 145.78171184 -92.62946559 144.742462 -91.25097656 143.70654297 C-88.87326777 141.90391993 -86.52606624 140.06583907 -84.1796875 138.22265625 C-68.07848581 125.69009172 -53.11972554 115.32660867 -31.875 117.53125 C-27.49607561 118.24520506 -24.56141379 119.68087455 -21.1875 122.53125 C-16.81678065 126.15075197 -13.89373116 127.66785888 -8.17578125 127.69921875 C-4.59851485 126.54961249 -3.27361889 125.01708241 -1 122 C-0.23797126 118.08559581 -0.31001933 114.21078759 -0.34057617 110.2331543 C-0.33009247 109.04248856 -0.31960876 107.85182281 -0.30880737 106.62507629 C-0.2849768 103.36899992 -0.28312533 100.11380665 -0.29110122 96.85768104 C-0.29422933 93.45163776 -0.26918316 90.04580347 -0.24714661 86.6398468 C-0.20971374 80.1942696 -0.1975591 73.74890337 -0.1945222 67.3032282 C-0.18983052 59.96336802 -0.15690378 52.62371908 -0.12162435 45.28395212 C-0.04970186 30.18932582 -0.01317504 15.09480048 0 0 Z " fill="#FCFCFC" transform="translate(2635,1255)"/>
<path d="M0 0 C1.67542976 0.28604898 3.34385343 0.61781233 5 1 C4.22542729 5.36909902 2.99259266 9.56887323 1.70703125 13.80859375 C1.2396065 15.36594933 0.77224229 16.92332307 0.30493164 18.48071289 C0.06098663 19.29073761 -0.18295837 20.10076233 -0.43429565 20.93533325 C-4.15834592 33.30673657 -7.81433754 45.68287684 -11.13012695 58.17114258 C-12.6341311 63.79644322 -14.33841218 69.28491793 -16.3359375 74.7578125 C-17.18931639 77.24947828 -17.18931639 77.24947828 -17 81 C8.11431549 89.5999936 33.25736219 98.10925881 58.44761276 106.48419952 C80.2025571 113.71708891 101.93142077 121.01901711 123.61424255 128.46551514 C132.82553811 131.6288155 142.04327065 134.77324491 151.26065063 137.91876221 C155.66483858 139.42185906 160.06874176 140.92578968 164.47265625 142.4296875 C165.94409035 142.93213313 167.41552574 143.434575 168.88696289 143.93701172 C169.91426514 144.28779785 170.94156738 144.63858398 172 145 C167.80031673 152.45432623 167.80031673 152.45432623 165.40625 155.8046875 C164.93968994 156.46138428 164.47312988 157.11808105 163.99243164 157.79467773 C163.25367798 158.82443726 163.25367798 158.82443726 162.5 159.875 C161.42566114 161.38402908 160.35144582 162.89314612 159.27734375 164.40234375 C158.73190918 165.16659668 158.18647461 165.93084961 157.62451172 166.71826172 C155.58272665 169.58608907 153.55799198 172.46569331 151.53344727 175.34570312 C146.92856393 181.89419117 142.26881038 188.39906618 137.5625 194.875 C133.0746377 201.05167693 128.7185846 207.30344625 124.4375 213.625 C119.97458959 220.21224775 115.33859751 226.61815948 110.51708984 232.94628906 C106.11666337 238.75871734 102.01512313 244.75339698 97.92797852 250.78857422 C93.66625036 257.0672114 89.26689136 263.23315885 84.80493164 269.37060547 C80.66422402 275.06820918 76.58314734 280.80464009 72.54785156 286.57739258 C69.86378286 290.40545392 67.12891456 294.18496794 64.32421875 297.92578125 C63.71771484 298.74175781 63.11121094 299.55773438 62.48632812 300.3984375 C61.30935856 301.97795366 60.1222077 303.54994666 58.92382812 305.11328125 C58.39595703 305.82484375 57.86808594 306.53640625 57.32421875 307.26953125 C56.85072998 307.89448486 56.37724121 308.51943848 55.8894043 309.16333008 C54.8390128 310.96197226 54.8390128 310.96197226 55.08789062 313.00976562 C56.32013836 315.69854601 57.89818954 316.81516048 60.26953125 318.57421875 C61.15189453 319.23679687 62.03425781 319.899375 62.94335938 320.58203125 C63.89017578 321.27683594 64.83699219 321.97164062 65.8125 322.6875 C67.26172852 323.7703125 67.26172852 323.7703125 68.74023438 324.875 C71.4870973 326.92544912 74.24267818 328.96365135 77 331 C79.00343743 332.49549359 81.00170238 333.99763025 83 335.5 C84.33611328 336.49773437 84.33611328 336.49773437 85.69921875 337.515625 C91.34022915 341.74592299 96.93085818 346.04371061 102.52929688 350.33007812 C107.29665746 353.97235586 112.09405525 357.54642907 117 361 C116.67 361.99 116.34 362.98 116 364 C110.78587961 362.40509259 107.05548796 359.10725759 102.875 355.75 C96.56074695 350.7566152 90.18900312 345.87210759 83.6875 341.125 C76.61015523 335.94786167 69.59792013 330.69202567 62.625 325.375 C61.29601685 324.36203857 61.29601685 324.36203857 59.94018555 323.32861328 C55.92535932 320.26093993 51.9252751 317.18221891 48 314 C49.60709717 309.12198742 52.39593785 305.36394297 55.375 301.25 C56.46761833 299.72277816 57.56006145 298.19543095 58.65234375 296.66796875 C59.21034668 295.89114746 59.76834961 295.11432617 60.34326172 294.31396484 C62.40256832 291.43773319 64.43738658 288.54477971 66.47070312 285.65014648 C71.05498985 279.12547342 75.69338225 272.64263967 80.375 266.1875 C85.58623224 259.00145213 90.69275051 251.74723058 95.7668457 244.46386719 C99.6414697 238.91226336 103.57941671 233.41168318 107.5625 227.9375 C112.02588538 221.80051443 116.3632132 215.59107022 120.625 209.3125 C124.9332679 202.9662776 129.34336798 196.72068231 133.90893555 190.55737305 C138.86931116 183.85345908 143.65651357 177.03018982 148.44873047 170.20556641 C150.05677417 167.91927953 151.67018194 165.63686461 153.28515625 163.35546875 C153.82342041 162.59476074 154.36168457 161.83405273 154.91625977 161.05029297 C155.94099958 159.6023563 156.96619704 158.15474335 157.99194336 156.70751953 C160.72354071 152.84376868 163.39509911 148.95035677 166 145 C165.04108856 144.84285774 165.04108856 144.84285774 164.06280518 144.68254089 C159.93868861 143.76348857 155.99826621 142.42262029 151.99511719 141.0793457 C151.09464157 140.77981995 150.19416595 140.48029419 149.2664032 140.17169189 C146.27557438 139.17598694 143.28621367 138.17595027 140.296875 137.17578125 C138.1827108 136.47066142 136.06847192 135.76576548 133.9541626 135.06108093 C129.49469876 133.5740704 125.03591433 132.08504559 120.57763672 130.59448242 C114.9953184 128.72816996 109.41175839 126.86560957 103.82771969 125.00445175 C80.77432386 117.31977849 57.74273501 109.57595272 34.75325012 101.70207214 C21.83589156 97.27835903 8.89683182 92.92440278 -4.0625 88.625 C-6.04366989 87.96629651 -8.02478942 87.30744151 -10.00585938 86.6484375 C-14.67000626 85.09724749 -19.33478689 83.54798022 -24 82 C-22.48239234 72.97203731 -19.85322791 64.28394624 -17.24609375 55.52734375 C-16.78023127 53.95228037 -16.31466518 52.3771293 -15.84938049 50.80189514 C-14.87967039 47.52245092 -13.90693223 44.24392561 -12.93188477 40.96606445 C-11.68018113 36.75752088 -10.43537967 32.54697302 -9.19268703 28.33576107 C-8.23518907 25.0932489 -7.27451874 21.85168369 -6.31282234 18.61041451 C-5.85221532 17.05687346 -5.39251022 15.50306472 -4.93371391 13.94898796 C-4.29548669 11.7891721 -3.65310507 9.63063694 -3.00952148 7.47241211 C-2.64471176 6.2434874 -2.27990204 5.01456268 -1.90403748 3.74839783 C-1 1 -1 1 0 0 Z " fill="#A1A1A1" transform="translate(2442,1399)"/>
<path d="M0 0 C4.18972051 1.3965735 5.55226618 4.3951019 7.875 7.9375 C8.86256442 9.41021001 9.85222884 10.88151351 10.84375 12.3515625 C11.36066406 13.11887695 11.87757813 13.88619141 12.41015625 14.67675781 C14.98848149 18.44447018 17.68269602 22.12581458 20.375 25.8125 C24.90276558 32.03178062 29.30569812 38.32177409 33.625 44.6875 C37.93314154 51.03380538 42.34337154 57.27932251 46.90893555 63.44262695 C52.40374203 70.86882063 57.69147749 78.44015641 63 86 C69.0735802 94.64209887 75.17344155 103.26162548 81.375 111.8125 C86.5788279 118.98833764 91.67904089 126.23161013 96.74487305 133.50537109 C101.36050512 140.12018396 106.0641497 146.66755627 110.82617188 153.17773438 C118 163.02685983 118 163.02685983 118 166 C116.68 166.33 115.36 166.66 114 167 C106.18690933 156.43387148 98.55158896 145.75418467 91 135 C84.9264198 126.35790113 78.82655845 117.73837452 72.625 109.1875 C67.41376776 102.00145213 62.30724949 94.74723058 57.2331543 87.46386719 C53.3585303 81.91226336 49.42058329 76.41168318 45.4375 70.9375 C40.97411462 64.80051443 36.6367868 58.59107022 32.375 52.3125 C28.07179229 45.97373143 23.66866384 39.73398937 19.10644531 33.5793457 C14.07267677 26.77971351 9.2223628 19.85257984 4.36035156 12.9296875 C2.25467715 9.94274376 0.12781463 6.97120297 -2 4 C-1.34 2.68 -0.68 1.36 0 0 Z " fill="#A1A1A1" transform="translate(2681,1596)"/>
<path d="M0 0 C1.65 0 3.3 0 5 0 C5.11678548 15.3160984 5.20496463 30.63217626 5.25906086 45.94861984 C5.28484609 53.06029898 5.32000206 60.17170152 5.37719727 67.28320312 C5.43234316 74.1431669 5.46140244 81.00284279 5.47438622 87.86301422 C5.48364176 90.48337586 5.50171516 93.10372133 5.52865028 95.72396088 C5.56482156 99.38761205 5.56995005 103.05006688 5.56762695 106.71386719 C5.58560333 107.80287323 5.60357971 108.89187927 5.62210083 110.0138855 C5.61522751 111.01225433 5.60835419 112.01062317 5.60127258 113.03924561 C5.60588155 113.90573101 5.61049051 114.77221642 5.61523914 115.66495895 C5 118 5 118 0 122 C0 81.74 0 41.48 0 0 Z " fill="#A6A6A6" transform="translate(2635,1255)"/>
<path d="M0 0 C0 26.73 0 53.46 0 81 C-1.65 80.67 -3.3 80.34 -5 80 C-5.09266175 70.1599946 -5.16374551 60.32009291 -5.20724869 50.47974014 C-5.22812765 45.91049036 -5.25645071 41.34153898 -5.30175781 36.77246094 C-5.34520488 32.36339127 -5.36913478 27.9546087 -5.37950897 23.54534149 C-5.38690243 21.86278513 -5.40134017 20.18024457 -5.42292023 18.49781036 C-5.45194003 16.14174899 -5.45595675 13.78687527 -5.45410156 11.43066406 C-5.46848267 10.73438904 -5.48286377 10.03811401 -5.49768066 9.32073975 C-5.46837851 5.88369385 -5.20793737 4.26066898 -3.03411865 1.5355835 C-1 0 -1 0 0 0 Z " fill="#A5A5A5" transform="translate(2640,1382)"/>
<path d="M0 0 C-8.84192389 3.74199644 -17.92535779 6.73617855 -27.02856445 9.76245117 C-28.73627351 10.33259227 -30.44389756 10.90298806 -32.15144348 11.47361755 C-36.76168047 13.01338692 -41.37316332 14.54939169 -45.98494363 16.08453155 C-50.81984292 17.69447033 -55.65376121 19.30734988 -60.48783875 20.91975403 C-68.59802683 23.62436041 -76.70905173 26.32644539 -84.82055664 29.02709961 C-94.19676699 32.14886883 -103.57152321 35.27497436 -112.94554359 38.40331286 C-121.00446869 41.09264579 -129.06417033 43.77964122 -137.12452668 46.46468145 C-141.93440378 48.06693492 -146.74400755 49.66999612 -151.55291176 51.27516747 C-156.06888923 52.78241818 -160.58583411 54.28673299 -165.10354424 55.78878212 C-166.76112249 56.34042652 -168.418361 56.893093 -170.07523346 57.44685364 C-172.33601084 58.20226683 -174.59798696 58.95397573 -176.86030579 59.70475769 C-177.51594539 59.92479137 -178.17158498 60.14482505 -178.84709245 60.37152642 C-182.20734238 61.48203144 -185.51200189 62.39446139 -189 63 C-189 62.34 -189 61.68 -189 61 C-155.56705185 49.49405675 -122.05066601 38.23551996 -88.51792717 27.02440834 C-79.35838316 23.96186798 -70.20127379 20.89224595 -61.04702538 17.8139115 C-54.51698553 15.61868952 -47.98431175 13.43143081 -41.44961578 11.25010866 C-37.5772722 9.95724816 -33.7061843 8.66089187 -29.83795738 7.35576057 C-26.23637166 6.1407491 -22.63164511 4.93558265 -19.02420998 3.73805428 C-17.70393684 3.29785338 -16.38486 2.85404579 -15.0670929 2.40639877 C-13.27195816 1.79718715 -11.47204522 1.20210925 -9.67192078 0.60780334 C-8.66695399 0.27109651 -7.66198721 -0.06561033 -6.62656689 -0.41252041 C-3.94301342 -1.01274609 -2.55156092 -0.93113118 0 0 Z " fill="#A1A1A1" transform="translate(2912,1400)"/>
</svg>
